

<svg xmlns="http://www.w3.org/2000/svg" id="Layer_2" data-name="Layer 2" viewBox="0 0 240 240"><defs><style>      .cls-1 {        fill: #0972ea;      }      .cls-2 {        fill: #404040;      }    </style></defs><path class="cls-1" d="m71.76,225c0-53.72.03-107.33-.09-161.03,0-4.1,1.39-7,4.11-9.99,22.77-25.47,55.15-36.54,88.39-38.9,3-.39,4.16.57,4.15,3.91-.13,53.9-.14,107.8-.09,161.69,0,2.89-.85,3.76-3.77,3.9-32.55,1.35-63.71,14.58-87.46,36.84-1.33,1.28-2.4,2.9-5.24,3.58Z"></path><path class="cls-2" d="m71.76,225c0-53.72.03-107.33-.09-161.03,0-4.1,1.39-7,4.11-9.99,22.77-25.47,55.15-36.54,88.39-38.9,3-.39,4.16.57,4.15,3.91-.13,53.9-.14,107.8-.09,161.69,0,2.89-.85,3.76-3.77,3.9-32.55,1.35-63.71,14.58-87.46,36.84-1.33,1.28-2.4,2.9-5.24,3.58Z"></path></svg>